<svg xmlns="http://www.w3.org/2000/svg" viewBox="0 0 20 20">
    <path
        d="M9.49 3.582a.722.722 0 0 0 1.232-.51V.721a.722.722 0 1 0-1.444 0v2.35c0 .191.076.375.211.51ZM9.49 19.788a.722.722 0 0 0 1.232-.51v-2.35a.722.722 0 1 0-1.444 0v2.35c0 .191.076.375.211.51ZM16.929 10.722h2.349a.722.722 0 1 0 0-1.444h-2.35a.722.722 0 0 0 0 1.444ZM.722 10.722h2.35a.722.722 0 1 0 0-1.444H.721a.722.722 0 0 0 0 1.444ZM14.623 5.768a.72.72 0 0 0 .787-.157l1.661-1.66a.722.722 0 1 0-1.022-1.022l-1.66 1.66a.723.723 0 0 0 .234 1.18ZM3.163 17.228a.719.719 0 0 0 .788-.157l1.66-1.66a.723.723 0 0 0-1.021-1.022l-1.661 1.66a.722.722 0 0 0 .234 1.179ZM16.284 17.228a.719.719 0 0 0 .787-.157.722.722 0 0 0 0-1.022l-1.66-1.66a.723.723 0 0 0-1.023 1.021l1.661 1.661a.72.72 0 0 0 .235.157ZM4.824 5.768a.72.72 0 0 0 .787-.157.722.722 0 0 0 0-1.021l-1.66-1.661a.722.722 0 1 0-1.022 1.022l1.66 1.66a.72.72 0 0 0 .235.157ZM4.86 10A5.147 5.147 0 0 0 10 15.14 5.147 5.147 0 0 0 15.14 10 5.147 5.147 0 0 0 10 4.86 5.147 5.147 0 0 0 4.86 10Z"
        fill="currentColor" />
</svg>